<?xml version="1.0" encoding="UTF-8"?>
<svg id="react" xmlns="http://www.w3.org/2000/svg" viewBox="0 0 180 120">
  <defs>
    <style>
      .cls-1 {
        letter-spacing: -.02em;
      }

      .cls-2 {
        font-family: Roboto-Black, Roboto;
        font-size: 21.22px;
        font-weight: 800;
        isolation: isolate;
      }

      .cls-3 {
        fill: #222;
      }

      .cls-3, .cls-4, .cls-5 {
        stroke-width: 0px;
      }

      .cls-4 {
        fill: #fff;
      }

      .cls-5 {
        fill: #00d8ff;
      }
    </style>
  </defs>
  <path class="cls-3" d="m0,0h180v120H0V0Z"/>
  <g>
    <circle class="cls-5" cx="90" cy="72.4" r="7.5"/>
    <path class="cls-5" d="m90,90.3c-5.1,0-10-.3-14.4-.9-4.7-.6-8.9-1.5-12.5-2.8-4.6-1.6-8.4-3.6-11.2-6-3-2.6-4.6-5.4-4.6-8.2s1.5-5.4,4.4-7.9c2.6-2.2,6.3-4.2,10.6-5.7,3.7-1.3,8-2.3,12.7-3,4.8-.7,9.8-1.1,15-1.1,10.1,0,19.8,1.4,27.3,4,4.4,1.5,8.2,3.5,10.8,5.7,3,2.5,4.6,5.2,4.6,8s-1.7,5.7-4.8,8.3c-2.8,2.3-6.8,4.4-11.5,6-3.6,1.2-7.7,2.1-12.2,2.7s-9.3.9-14.2.9Zm0-30.7c-4.9,0-9.7.3-14.2,1-4.4.7-8.4,1.6-11.8,2.8-3.8,1.3-6.9,3-9.1,4.8-1.7,1.5-2.7,3-2.7,4.2,0,1.3,1.1,2.9,2.9,4.5,2.3,2,5.6,3.7,9.6,5.1,3.3,1.1,7.1,2,11.5,2.5,4.3.6,8.9.8,13.8.8,9.5,0,18.3-1.2,24.8-3.4,4.2-1.4,7.6-3.1,10-5.1,1.9-1.6,3-3.2,3-4.5,0-1.2-1-2.8-2.8-4.2-2.2-1.8-5.4-3.5-9.3-4.9-7-2.3-16.1-3.6-25.7-3.6Z"/>
    <path class="cls-5" d="m72.9,110.5c-1.6,0-3.1-.4-4.3-1.1-2.3-1.4-4-4-4.6-7.8-.6-3.3-.5-7.5.4-12,.7-3.9,2-8.1,3.7-12.5,1.8-4.5,4-9,6.5-13.5h0c5-8.7,11.1-16.4,17.1-21.7,3.5-3.1,7.1-5.3,10.4-6.5,3.6-1.3,6.8-1.3,9.2,0,2.5,1.4,4.1,4.3,4.8,8.3.6,3.6.4,8.1-.6,13-.8,3.7-2,7.7-3.8,11.9-1.7,4.2-3.8,8.4-6.3,12.7-2.6,4.4-5.2,8.5-8,12.1-2.9,3.8-5.8,6.9-8.6,9.4-3.6,3.2-7.4,5.5-10.8,6.7-1.8.7-3.5,1-5.1,1Zm34.2-71.2c-.9,0-2.1.2-3.4.7-2.7,1-5.8,2.9-8.9,5.6-5.6,4.9-11.3,12.1-16.1,20.4h0c-2.4,4.2-4.5,8.6-6.2,12.8-1.6,4.2-2.8,8.1-3.5,11.7-.7,3.9-.9,7.5-.4,10.3.4,2.3,1.2,3.8,2.3,4.4s3.1.5,5.4-.3c2.9-1,6-3,9.2-5.8,2.6-2.3,5.3-5.2,8-8.7,2.6-3.4,5.2-7.3,7.6-11.5,4.7-8.2,8.1-16.4,9.5-23.2.9-4.3,1.1-8.2.6-11.2-.4-2.5-1.3-4.2-2.4-4.9-.4-.2-1-.3-1.7-.3Z"/>
    <path class="cls-5" d="m107.1,110.6c-1.5,0-3.1-.3-4.8-.9-3.2-1.1-6.8-3.3-10.3-6.3-3-2.6-6-5.8-9-9.5-3-3.8-5.9-8-8.4-12.4h0c-5.1-8.7-8.7-17.8-10.2-25.6-.9-4.6-1.1-8.8-.5-12.2.7-3.8,2.3-6.6,4.6-7.9,2.4-1.4,5.8-1.4,9.6,0,3.4,1.3,7.2,3.7,10.9,7,2.8,2.5,5.6,5.6,8.5,9.2,2.7,3.6,5.4,7.5,7.9,11.8,2.6,4.4,4.7,8.8,6.5,12.9,1.8,4.4,3.1,8.5,3.9,12.2.9,4.7,1.1,9.1.4,12.7-.7,3.9-2.4,6.7-4.8,8.1-1.3.5-2.7.9-4.3.9Zm-28.3-31.6c2.5,4.2,5.1,8.2,8,11.8,2.8,3.5,5.6,6.5,8.3,8.8,6.5,5.6,11.7,6.8,13.7,5.7,1.1-.6,2-2.4,2.5-4.8.6-3,.4-6.7-.4-10.9-.7-3.4-1.9-7.2-3.6-11.2-1.6-4-3.7-8.1-6.2-12.4-4.6-8.1-10.1-15.2-15.3-19.7-3.3-2.9-6.5-5-9.4-6.1-2.3-.9-4.3-1-5.4-.4-1,.6-1.9,2.3-2.3,4.6-.5,2.8-.3,6.5.5,10.5,1.4,7.2,4.8,15.8,9.6,24.1h0Z"/>
  </g>
  <rect class="cls-4" x="1.28" y="1.6" width="177.45" height="23.2"/>
  <text class="cls-2" transform="translate(11.66 20.48)"><tspan x="0" y="0">SMA</tspan><tspan class="cls-1" x="46.33" y="0">R</tspan><tspan x="59.65" y="0">TBANNER</tspan></text>
</svg>